ISO-10303-21;
HEADER;
/* Generated by software containing ST-Developer
 * from STEP Tools, Inc. (www.steptools.com) 
 */

FILE_DESCRIPTION(
/* description */ (''),
/* implementation_level */ '2;1');

FILE_NAME(
/* name */ 'macropad down.step',
/* time_stamp */ '2026-02-23T15:20:37Z',
/* author */ (''),
/* organization */ (''),
/* preprocessor_version */ 'ST-DEVELOPER v20.1',
/* originating_system */ 'Autodesk Translation Framework v14.24.0.0',
/* authorisation */ '');

FILE_SCHEMA (('AUTOMOTIVE_DESIGN { 1 0 10303 214 3 1 1 }'));
ENDSEC;

DATA;
#10=MECHANICAL_DESIGN_GEOMETRIC_PRESENTATION_REPRESENTATION('',(#17),#1399);
#11=ITEM_DEFINED_TRANSFORMATION($,$,#855,#924);
#12=(
REPRESENTATION_RELATIONSHIP($,$,#1410,#1409)
REPRESENTATION_RELATIONSHIP_WITH_TRANSFORMATION(#11)
SHAPE_REPRESENTATION_RELATIONSHIP()
);
#13=CONTEXT_DEPENDENT_SHAPE_REPRESENTATION(#12,#1408);
#14=NEXT_ASSEMBLY_USAGE_OCCURRENCE('macropad bottom:1',
'macropad bottom:1','macropad bottom:1',#1412,#1413,'macropad bottom:1');
#15=SHAPE_REPRESENTATION_RELATIONSHIP('SRR','None',#1410,#16);
#16=ADVANCED_BREP_SHAPE_REPRESENTATION('',(#18),#1398);
#17=STYLED_ITEM('',(#1423),#18);
#18=MANIFOLD_SOLID_BREP('Body1',#841);
#19=FACE_BOUND('',#128,.T.);
#20=FACE_BOUND('',#129,.T.);
#21=FACE_BOUND('',#130,.T.);
#22=FACE_BOUND('',#131,.T.);
#23=FACE_BOUND('',#151,.T.);
#24=FACE_BOUND('',#152,.T.);
#25=FACE_BOUND('',#153,.T.);
#26=FACE_BOUND('',#154,.T.);
#27=FACE_BOUND('',#157,.T.);
#28=FACE_BOUND('',#160,.T.);
#29=FACE_BOUND('',#163,.T.);
#30=FACE_BOUND('',#166,.T.);
#31=CIRCLE('',#866,3.15);
#32=CIRCLE('',#867,3.15);
#33=CIRCLE('',#869,3.15);
#34=CIRCLE('',#870,3.15);
#35=CIRCLE('',#872,3.15);
#36=CIRCLE('',#873,3.15);
#37=CIRCLE('',#875,3.15);
#38=CIRCLE('',#876,3.15);
#39=CIRCLE('',#881,5.);
#40=CIRCLE('',#882,5.);
#41=CIRCLE('',#883,5.);
#42=CIRCLE('',#884,5.);
#43=CIRCLE('',#885,1.7);
#44=CIRCLE('',#886,1.7);
#45=CIRCLE('',#887,1.70000000000001);
#46=CIRCLE('',#888,1.7);
#47=CIRCLE('',#896,5.);
#48=CIRCLE('',#898,5.);
#49=CIRCLE('',#900,5.);
#50=CIRCLE('',#903,5.);
#51=CIRCLE('',#913,1.7);
#52=CIRCLE('',#916,1.70000000000001);
#53=CIRCLE('',#919,1.7);
#54=CIRCLE('',#922,1.7);
#55=CYLINDRICAL_SURFACE('',#865,3.15);
#56=CYLINDRICAL_SURFACE('',#868,3.15);
#57=CYLINDRICAL_SURFACE('',#871,3.15);
#58=CYLINDRICAL_SURFACE('',#874,3.15);
#59=CYLINDRICAL_SURFACE('',#895,5.);
#60=CYLINDRICAL_SURFACE('',#897,5.);
#61=CYLINDRICAL_SURFACE('',#899,5.);
#62=CYLINDRICAL_SURFACE('',#902,5.);
#63=CYLINDRICAL_SURFACE('',#912,1.7);
#64=CYLINDRICAL_SURFACE('',#915,1.70000000000001);
#65=CYLINDRICAL_SURFACE('',#918,1.7);
#66=CYLINDRICAL_SURFACE('',#921,1.7);
#67=FACE_OUTER_BOUND('',#111,.T.);
#68=FACE_OUTER_BOUND('',#112,.T.);
#69=FACE_OUTER_BOUND('',#113,.T.);
#70=FACE_OUTER_BOUND('',#114,.T.);
#71=FACE_OUTER_BOUND('',#115,.T.);
#72=FACE_OUTER_BOUND('',#116,.T.);
#73=FACE_OUTER_BOUND('',#117,.T.);
#74=FACE_OUTER_BOUND('',#118,.T.);
#75=FACE_OUTER_BOUND('',#119,.T.);
#76=FACE_OUTER_BOUND('',#120,.T.);
#77=FACE_OUTER_BOUND('',#121,.T.);
#78=FACE_OUTER_BOUND('',#122,.T.);
#79=FACE_OUTER_BOUND('',#123,.T.);
#80=FACE_OUTER_BOUND('',#124,.T.);
#81=FACE_OUTER_BOUND('',#125,.T.);
#82=FACE_OUTER_BOUND('',#126,.T.);
#83=FACE_OUTER_BOUND('',#127,.T.);
#84=FACE_OUTER_BOUND('',#132,.T.);
#85=FACE_OUTER_BOUND('',#133,.T.);
#86=FACE_OUTER_BOUND('',#134,.T.);
#87=FACE_OUTER_BOUND('',#135,.T.);
#88=FACE_OUTER_BOUND('',#136,.T.);
#89=FACE_OUTER_BOUND('',#137,.T.);
#90=FACE_OUTER_BOUND('',#138,.T.);
#91=FACE_OUTER_BOUND('',#139,.T.);
#92=FACE_OUTER_BOUND('',#140,.T.);
#93=FACE_OUTER_BOUND('',#141,.T.);
#94=FACE_OUTER_BOUND('',#142,.T.);
#95=FACE_OUTER_BOUND('',#143,.T.);
#96=FACE_OUTER_BOUND('',#144,.T.);
#97=FACE_OUTER_BOUND('',#145,.T.);
#98=FACE_OUTER_BOUND('',#146,.T.);
#99=FACE_OUTER_BOUND('',#147,.T.);
#100=FACE_OUTER_BOUND('',#148,.T.);
#101=FACE_OUTER_BOUND('',#149,.T.);
#102=FACE_OUTER_BOUND('',#150,.T.);
#103=FACE_OUTER_BOUND('',#155,.T.);
#104=FACE_OUTER_BOUND('',#156,.T.);
#105=FACE_OUTER_BOUND('',#158,.T.);
#106=FACE_OUTER_BOUND('',#159,.T.);
#107=FACE_OUTER_BOUND('',#161,.T.);
#108=FACE_OUTER_BOUND('',#162,.T.);
#109=FACE_OUTER_BOUND('',#164,.T.);
#110=FACE_OUTER_BOUND('',#165,.T.);
#111=EDGE_LOOP('',(#537,#538,#539,#540));
#112=EDGE_LOOP('',(#541,#542,#543,#544));
#113=EDGE_LOOP('',(#545,#546,#547,#548));
#114=EDGE_LOOP('',(#549,#550,#551,#552));
#115=EDGE_LOOP('',(#553,#554,#555,#556));
#116=EDGE_LOOP('',(#557,#558,#559,#560));
#117=EDGE_LOOP('',(#561,#562,#563,#564,#565,#566,#567,#568,#569,#570,#571,
#572,#573,#574,#575,#576));
#118=EDGE_LOOP('',(#577,#578,#579,#580));
#119=EDGE_LOOP('',(#581,#582,#583,#584));
#120=EDGE_LOOP('',(#585,#586,#587,#588));
#121=EDGE_LOOP('',(#589,#590,#591,#592));
#122=EDGE_LOOP('',(#593,#594,#595,#596));
#123=EDGE_LOOP('',(#597,#598,#599,#600));
#124=EDGE_LOOP('',(#601,#602,#603,#604));
#125=EDGE_LOOP('',(#605,#606,#607,#608,#609,#610,#611,#612));
#126=EDGE_LOOP('',(#613,#614,#615,#616));
#127=EDGE_LOOP('',(#617,#618,#619,#620,#621,#622,#623,#624,#625,#626,#627,
#628,#629,#630,#631,#632));
#128=EDGE_LOOP('',(#633));
#129=EDGE_LOOP('',(#634));
#130=EDGE_LOOP('',(#635));
#131=EDGE_LOOP('',(#636));
#132=EDGE_LOOP('',(#637,#638,#639,#640));
#133=EDGE_LOOP('',(#641,#642,#643,#644,#645,#646));
#134=EDGE_LOOP('',(#647,#648,#649,#650));
#135=EDGE_LOOP('',(#651,#652,#653,#654));
#136=EDGE_LOOP('',(#655,#656,#657,#658,#659,#660));
#137=EDGE_LOOP('',(#661,#662,#663,#664,#665,#666,#667,#668));
#138=EDGE_LOOP('',(#669,#670,#671,#672));
#139=EDGE_LOOP('',(#673,#674,#675,#676));
#140=EDGE_LOOP('',(#677,#678,#679,#680));
#141=EDGE_LOOP('',(#681,#682,#683,#684));
#142=EDGE_LOOP('',(#685,#686,#687,#688));
#143=EDGE_LOOP('',(#689,#690,#691,#692));
#144=EDGE_LOOP('',(#693,#694,#695,#696));
#145=EDGE_LOOP('',(#697,#698,#699,#700));
#146=EDGE_LOOP('',(#701,#702,#703,#704,#705,#706,#707,#708,#709,#710,#711,
#712,#713,#714,#715,#716));
#147=EDGE_LOOP('',(#717,#718,#719,#720));
#148=EDGE_LOOP('',(#721,#722,#723,#724));
#149=EDGE_LOOP('',(#725,#726,#727,#728));
#150=EDGE_LOOP('',(#729,#730,#731,#732,#733,#734,#735,#736));
#151=EDGE_LOOP('',(#737));
#152=EDGE_LOOP('',(#738));
#153=EDGE_LOOP('',(#739));
#154=EDGE_LOOP('',(#740));
#155=EDGE_LOOP('',(#741,#742,#743,#744));
#156=EDGE_LOOP('',(#745));
#157=EDGE_LOOP('',(#746));
#158=EDGE_LOOP('',(#747,#748,#749,#750));
#159=EDGE_LOOP('',(#751));
#160=EDGE_LOOP('',(#752));
#161=EDGE_LOOP('',(#753,#754,#755,#756));
#162=EDGE_LOOP('',(#757));
#163=EDGE_LOOP('',(#758));
#164=EDGE_LOOP('',(#759,#760,#761,#762));
#165=EDGE_LOOP('',(#763));
#166=EDGE_LOOP('',(#764));
#167=LINE('',#1162,#257);
#168=LINE('',#1164,#258);
#169=LINE('',#1166,#259);
#170=LINE('',#1167,#260);
#171=LINE('',#1171,#261);
#172=LINE('',#1173,#262);
#173=LINE('',#1175,#263);
#174=LINE('',#1176,#264);
#175=LINE('',#1178,#265);
#176=LINE('',#1179,#266);
#177=LINE('',#1183,#267);
#178=LINE('',#1185,#268);
#179=LINE('',#1187,#269);
#180=LINE('',#1188,#270);
#181=LINE('',#1192,#271);
#182=LINE('',#1194,#272);
#183=LINE('',#1196,#273);
#184=LINE('',#1197,#274);
#185=LINE('',#1199,#275);
#186=LINE('',#1200,#276);
#187=LINE('',#1203,#277);
#188=LINE('',#1205,#278);
#189=LINE('',#1207,#279);
#190=LINE('',#1209,#280);
#191=LINE('',#1210,#281);
#192=LINE('',#1212,#282);
#193=LINE('',#1214,#283);
#194=LINE('',#1216,#284);
#195=LINE('',#1218,#285);
#196=LINE('',#1219,#286);
#197=LINE('',#1222,#287);
#198=LINE('',#1223,#288);
#199=LINE('',#1226,#289);
#200=LINE('',#1227,#290);
#201=LINE('',#1232,#291);
#202=LINE('',#1238,#292);
#203=LINE('',#1244,#293);
#204=LINE('',#1250,#294);
#205=LINE('',#1255,#295);
#206=LINE('',#1257,#296);
#207=LINE('',#1259,#297);
#208=LINE('',#1260,#298);
#209=LINE('',#1263,#299);
#210=LINE('',#1265,#300);
#211=LINE('',#1267,#301);
#212=LINE('',#1269,#302);
#213=LINE('',#1271,#303);
#214=LINE('',#1273,#304);
#215=LINE('',#1274,#305);
#216=LINE('',#1278,#306);
#217=LINE('',#1280,#307);
#218=LINE('',#1282,#308);
#219=LINE('',#1283,#309);
#220=LINE('',#1289,#310);
#221=LINE('',#1293,#311);
#222=LINE('',#1296,#312);
#223=LINE('',#1298,#313);
#224=LINE('',#1300,#314);
#225=LINE('',#1302,#315);
#226=LINE('',#1303,#316);
#227=LINE('',#1315,#317);
#228=LINE('',#1317,#318);
#229=LINE('',#1319,#319);
#230=LINE('',#1320,#320);
#231=LINE('',#1322,#321);
#232=LINE('',#1324,#322);
#233=LINE('',#1325,#323);
#234=LINE('',#1327,#324);
#235=LINE('',#1330,#325);
#236=LINE('',#1331,#326);
#237=LINE('',#1333,#327);
#238=LINE('',#1335,#328);
#239=LINE('',#1336,#329);
#240=LINE('',#1339,#330);
#241=LINE('',#1345,#331);
#242=LINE('',#1348,#332);
#243=LINE('',#1351,#333);
#244=LINE('',#1352,#334);
#245=LINE('',#1357,#335);
#246=LINE('',#1358,#336);
#247=LINE('',#1361,#337);
#248=LINE('',#1362,#338);
#249=LINE('',#1364,#339);
#250=LINE('',#1366,#340);
#251=LINE('',#1367,#341);
#252=LINE('',#1371,#342);
#253=LINE('',#1375,#343);
#254=LINE('',#1380,#344);
#255=LINE('',#1385,#345);
#256=LINE('',#1390,#346);
#257=VECTOR('',#931,10.);
#258=VECTOR('',#932,10.);
#259=VECTOR('',#933,10.);
#260=VECTOR('',#934,10.);
#261=VECTOR('',#937,10.);
#262=VECTOR('',#938,10.);
#263=VECTOR('',#939,10.);
#264=VECTOR('',#940,10.);
#265=VECTOR('',#943,10.);
#266=VECTOR('',#944,10.);
#267=VECTOR('',#947,10.);
#268=VECTOR('',#948,10.);
#269=VECTOR('',#949,10.);
#270=VECTOR('',#950,10.);
#271=VECTOR('',#953,10.);
#272=VECTOR('',#954,10.);
#273=VECTOR('',#955,10.);
#274=VECTOR('',#956,10.);
#275=VECTOR('',#959,10.);
#276=VECTOR('',#960,10.);
#277=VECTOR('',#963,10.);
#278=VECTOR('',#964,10.);
#279=VECTOR('',#965,10.);
#280=VECTOR('',#966,10.);
#281=VECTOR('',#967,10.);
#282=VECTOR('',#968,10.);
#283=VECTOR('',#969,10.);
#284=VECTOR('',#970,10.);
#285=VECTOR('',#971,10.);
#286=VECTOR('',#972,10.);
#287=VECTOR('',#975,10.);
#288=VECTOR('',#976,10.);
#289=VECTOR('',#979,10.);
#290=VECTOR('',#980,10.);
#291=VECTOR('',#985,3.15);
#292=VECTOR('',#992,3.15);
#293=VECTOR('',#999,3.15);
#294=VECTOR('',#1006,3.15);
#295=VECTOR('',#1011,10.);
#296=VECTOR('',#1012,10.);
#297=VECTOR('',#1013,10.);
#298=VECTOR('',#1014,10.);
#299=VECTOR('',#1017,10.);
#300=VECTOR('',#1018,10.);
#301=VECTOR('',#1019,10.);
#302=VECTOR('',#1020,10.);
#303=VECTOR('',#1021,10.);
#304=VECTOR('',#1022,10.);
#305=VECTOR('',#1023,10.);
#306=VECTOR('',#1026,10.);
#307=VECTOR('',#1027,10.);
#308=VECTOR('',#1028,10.);
#309=VECTOR('',#1029,10.);
#310=VECTOR('',#1036,10.);
#311=VECTOR('',#1039,10.);
#312=VECTOR('',#1042,10.);
#313=VECTOR('',#1043,10.);
#314=VECTOR('',#1044,10.);
#315=VECTOR('',#1045,10.);
#316=VECTOR('',#1046,10.);
#317=VECTOR('',#1057,10.);
#318=VECTOR('',#1058,10.);
#319=VECTOR('',#1059,10.);
#320=VECTOR('',#1060,10.);
#321=VECTOR('',#1063,10.);
#322=VECTOR('',#1064,10.);
#323=VECTOR('',#1065,10.);
#324=VECTOR('',#1068,10.);
#325=VECTOR('',#1071,10.);
#326=VECTOR('',#1072,10.);
#327=VECTOR('',#1075,10.);
#328=VECTOR('',#1078,10.);
#329=VECTOR('',#1079,10.);
#330=VECTOR('',#1082,10.);
#331=VECTOR('',#1091,10.);
#332=VECTOR('',#1094,10.);
#333=VECTOR('',#1097,10.);
#334=VECTOR('',#1098,10.);
#335=VECTOR('',#1105,10.);
#336=VECTOR('',#1106,10.);
#337=VECTOR('',#1109,10.);
#338=VECTOR('',#1110,10.);
#339=VECTOR('',#1113,10.);
#340=VECTOR('',#1116,10.);
#341=VECTOR('',#1117,10.);
#342=VECTOR('',#1124,10.);
#343=VECTOR('',#1129,1.7);
#344=VECTOR('',#1136,1.70000000000001);
#345=VECTOR('',#1143,1.7);
#346=VECTOR('',#1150,1.7);
#347=VERTEX_POINT('',#1160);
#348=VERTEX_POINT('',#1161);
#349=VERTEX_POINT('',#1163);
#350=VERTEX_POINT('',#1165);
#351=VERTEX_POINT('',#1169);
#352=VERTEX_POINT('',#1170);
#353=VERTEX_POINT('',#1172);
#354=VERTEX_POINT('',#1174);
#355=VERTEX_POINT('',#1181);
#356=VERTEX_POINT('',#1182);
#357=VERTEX_POINT('',#1184);
#358=VERTEX_POINT('',#1186);
#359=VERTEX_POINT('',#1190);
#360=VERTEX_POINT('',#1191);
#361=VERTEX_POINT('',#1193);
#362=VERTEX_POINT('',#1195);
#363=VERTEX_POINT('',#1202);
#364=VERTEX_POINT('',#1204);
#365=VERTEX_POINT('',#1206);
#366=VERTEX_POINT('',#1208);
#367=VERTEX_POINT('',#1211);
#368=VERTEX_POINT('',#1213);
#369=VERTEX_POINT('',#1215);
#370=VERTEX_POINT('',#1217);
#371=VERTEX_POINT('',#1221);
#372=VERTEX_POINT('',#1225);
#373=VERTEX_POINT('',#1229);
#374=VERTEX_POINT('',#1231);
#375=VERTEX_POINT('',#1235);
#376=VERTEX_POINT('',#1237);
#377=VERTEX_POINT('',#1241);
#378=VERTEX_POINT('',#1243);
#379=VERTEX_POINT('',#1247);
#380=VERTEX_POINT('',#1249);
#381=VERTEX_POINT('',#1253);
#382=VERTEX_POINT('',#1254);
#383=VERTEX_POINT('',#1256);
#384=VERTEX_POINT('',#1258);
#385=VERTEX_POINT('',#1262);
#386=VERTEX_POINT('',#1264);
#387=VERTEX_POINT('',#1266);
#388=VERTEX_POINT('',#1268);
#389=VERTEX_POINT('',#1270);
#390=VERTEX_POINT('',#1272);
#391=VERTEX_POINT('',#1276);
#392=VERTEX_POINT('',#1277);
#393=VERTEX_POINT('',#1279);
#394=VERTEX_POINT('',#1281);
#395=VERTEX_POINT('',#1286);
#396=VERTEX_POINT('',#1288);
#397=VERTEX_POINT('',#1290);
#398=VERTEX_POINT('',#1292);
#399=VERTEX_POINT('',#1295);
#400=VERTEX_POINT('',#1297);
#401=VERTEX_POINT('',#1299);
#402=VERTEX_POINT('',#1301);
#403=VERTEX_POINT('',#1304);
#404=VERTEX_POINT('',#1306);
#405=VERTEX_POINT('',#1308);
#406=VERTEX_POINT('',#1310);
#407=VERTEX_POINT('',#1313);
#408=VERTEX_POINT('',#1314);
#409=VERTEX_POINT('',#1316);
#410=VERTEX_POINT('',#1318);
#411=VERTEX_POINT('',#1323);
#412=VERTEX_POINT('',#1329);
#413=VERTEX_POINT('',#1338);
#414=VERTEX_POINT('',#1344);
#415=VERTEX_POINT('',#1346);
#416=VERTEX_POINT('',#1350);
#417=VERTEX_POINT('',#1356);
#418=VERTEX_POINT('',#1360);
#419=VERTEX_POINT('',#1374);
#420=VERTEX_POINT('',#1379);
#421=VERTEX_POINT('',#1384);
#422=VERTEX_POINT('',#1389);
#423=EDGE_CURVE('',#347,#348,#167,.T.);
#424=EDGE_CURVE('',#349,#347,#168,.T.);
#425=EDGE_CURVE('',#349,#350,#169,.T.);
#426=EDGE_CURVE('',#348,#350,#170,.T.);
#427=EDGE_CURVE('',#351,#352,#171,.T.);
#428=EDGE_CURVE('',#353,#351,#172,.T.);
#429=EDGE_CURVE('',#353,#354,#173,.T.);
#430=EDGE_CURVE('',#352,#354,#174,.T.);
#431=EDGE_CURVE('',#350,#353,#175,.T.);
#432=EDGE_CURVE('',#354,#349,#176,.T.);
#433=EDGE_CURVE('',#355,#356,#177,.T.);
#434=EDGE_CURVE('',#357,#355,#178,.T.);
#435=EDGE_CURVE('',#357,#358,#179,.T.);
#436=EDGE_CURVE('',#356,#358,#180,.T.);
#437=EDGE_CURVE('',#359,#360,#181,.T.);
#438=EDGE_CURVE('',#361,#359,#182,.T.);
#439=EDGE_CURVE('',#361,#362,#183,.T.);
#440=EDGE_CURVE('',#360,#362,#184,.T.);
#441=EDGE_CURVE('',#358,#361,#185,.T.);
#442=EDGE_CURVE('',#362,#357,#186,.T.);
#443=EDGE_CURVE('',#363,#347,#187,.T.);
#444=EDGE_CURVE('',#363,#364,#188,.T.);
#445=EDGE_CURVE('',#364,#365,#189,.T.);
#446=EDGE_CURVE('',#365,#366,#190,.T.);
#447=EDGE_CURVE('',#360,#366,#191,.T.);
#448=EDGE_CURVE('',#367,#355,#192,.T.);
#449=EDGE_CURVE('',#368,#367,#193,.T.);
#450=EDGE_CURVE('',#368,#369,#194,.T.);
#451=EDGE_CURVE('',#370,#369,#195,.T.);
#452=EDGE_CURVE('',#352,#370,#196,.T.);
#453=EDGE_CURVE('',#366,#371,#197,.T.);
#454=EDGE_CURVE('',#371,#359,#198,.T.);
#455=EDGE_CURVE('',#348,#372,#199,.T.);
#456=EDGE_CURVE('',#372,#363,#200,.T.);
#457=EDGE_CURVE('',#373,#373,#31,.T.);
#458=EDGE_CURVE('',#373,#374,#201,.T.);
#459=EDGE_CURVE('',#374,#374,#32,.T.);
#460=EDGE_CURVE('',#375,#375,#33,.T.);
#461=EDGE_CURVE('',#375,#376,#202,.T.);
#462=EDGE_CURVE('',#376,#376,#34,.T.);
#463=EDGE_CURVE('',#377,#377,#35,.T.);
#464=EDGE_CURVE('',#377,#378,#203,.T.);
#465=EDGE_CURVE('',#378,#378,#36,.T.);
#466=EDGE_CURVE('',#379,#379,#37,.T.);
#467=EDGE_CURVE('',#379,#380,#204,.T.);
#468=EDGE_CURVE('',#380,#380,#38,.T.);
#469=EDGE_CURVE('',#381,#382,#205,.T.);
#470=EDGE_CURVE('',#383,#381,#206,.T.);
#471=EDGE_CURVE('',#384,#383,#207,.T.);
#472=EDGE_CURVE('',#382,#384,#208,.T.);
#473=EDGE_CURVE('',#385,#384,#209,.T.);
#474=EDGE_CURVE('',#383,#386,#210,.T.);
#475=EDGE_CURVE('',#387,#386,#211,.T.);
#476=EDGE_CURVE('',#388,#387,#212,.T.);
#477=EDGE_CURVE('',#389,#388,#213,.T.);
#478=EDGE_CURVE('',#390,#389,#214,.T.);
#479=EDGE_CURVE('',#385,#390,#215,.T.);
#480=EDGE_CURVE('',#391,#392,#216,.T.);
#481=EDGE_CURVE('',#393,#391,#217,.T.);
#482=EDGE_CURVE('',#393,#394,#218,.T.);
#483=EDGE_CURVE('',#392,#394,#219,.T.);
#484=EDGE_CURVE('',#391,#370,#39,.T.);
#485=EDGE_CURVE('',#395,#392,#40,.T.);
#486=EDGE_CURVE('',#395,#396,#220,.T.);
#487=EDGE_CURVE('',#397,#396,#41,.T.);
#488=EDGE_CURVE('',#397,#398,#221,.T.);
#489=EDGE_CURVE('',#367,#398,#42,.T.);
#490=EDGE_CURVE('',#356,#399,#222,.T.);
#491=EDGE_CURVE('',#399,#400,#223,.T.);
#492=EDGE_CURVE('',#400,#401,#224,.T.);
#493=EDGE_CURVE('',#401,#402,#225,.T.);
#494=EDGE_CURVE('',#402,#351,#226,.T.);
#495=EDGE_CURVE('',#403,#403,#43,.T.);
#496=EDGE_CURVE('',#404,#404,#44,.T.);
#497=EDGE_CURVE('',#405,#405,#45,.T.);
#498=EDGE_CURVE('',#406,#406,#46,.T.);
#499=EDGE_CURVE('',#407,#408,#227,.T.);
#500=EDGE_CURVE('',#409,#407,#228,.T.);
#501=EDGE_CURVE('',#410,#409,#229,.T.);
#502=EDGE_CURVE('',#408,#410,#230,.T.);
#503=EDGE_CURVE('',#382,#407,#231,.T.);
#504=EDGE_CURVE('',#411,#385,#232,.T.);
#505=EDGE_CURVE('',#411,#409,#233,.T.);
#506=EDGE_CURVE('',#408,#381,#234,.T.);
#507=EDGE_CURVE('',#412,#411,#235,.T.);
#508=EDGE_CURVE('',#412,#410,#236,.T.);
#509=EDGE_CURVE('',#386,#412,#237,.T.);
#510=EDGE_CURVE('',#390,#401,#238,.T.);
#511=EDGE_CURVE('',#387,#400,#239,.T.);
#512=EDGE_CURVE('',#398,#413,#240,.T.);
#513=EDGE_CURVE('',#413,#368,#47,.T.);
#514=EDGE_CURVE('',#369,#393,#48,.T.);
#515=EDGE_CURVE('',#396,#414,#241,.T.);
#516=EDGE_CURVE('',#414,#415,#49,.T.);
#517=EDGE_CURVE('',#415,#397,#242,.T.);
#518=EDGE_CURVE('',#416,#395,#243,.T.);
#519=EDGE_CURVE('',#416,#414,#244,.T.);
#520=EDGE_CURVE('',#394,#416,#50,.T.);
#521=EDGE_CURVE('',#365,#417,#245,.T.);
#522=EDGE_CURVE('',#371,#417,#246,.T.);
#523=EDGE_CURVE('',#418,#372,#247,.T.);
#524=EDGE_CURVE('',#418,#364,#248,.T.);
#525=EDGE_CURVE('',#417,#418,#249,.T.);
#526=EDGE_CURVE('',#389,#402,#250,.T.);
#527=EDGE_CURVE('',#388,#399,#251,.T.);
#528=EDGE_CURVE('',#415,#413,#252,.T.);
#529=EDGE_CURVE('',#404,#419,#253,.T.);
#530=EDGE_CURVE('',#419,#419,#51,.T.);
#531=EDGE_CURVE('',#405,#420,#254,.T.);
#532=EDGE_CURVE('',#420,#420,#52,.T.);
#533=EDGE_CURVE('',#403,#421,#255,.T.);
#534=EDGE_CURVE('',#421,#421,#53,.T.);
#535=EDGE_CURVE('',#406,#422,#256,.T.);
#536=EDGE_CURVE('',#422,#422,#54,.T.);
#537=ORIENTED_EDGE('',*,*,#423,.F.);
#538=ORIENTED_EDGE('',*,*,#424,.F.);
#539=ORIENTED_EDGE('',*,*,#425,.T.);
#540=ORIENTED_EDGE('',*,*,#426,.F.);
#541=ORIENTED_EDGE('',*,*,#427,.F.);
#542=ORIENTED_EDGE('',*,*,#428,.F.);
#543=ORIENTED_EDGE('',*,*,#429,.T.);
#544=ORIENTED_EDGE('',*,*,#430,.F.);
#545=ORIENTED_EDGE('',*,*,#431,.F.);
#546=ORIENTED_EDGE('',*,*,#425,.F.);
#547=ORIENTED_EDGE('',*,*,#432,.F.);
#548=ORIENTED_EDGE('',*,*,#429,.F.);
#549=ORIENTED_EDGE('',*,*,#433,.F.);
#550=ORIENTED_EDGE('',*,*,#434,.F.);
#551=ORIENTED_EDGE('',*,*,#435,.T.);
#552=ORIENTED_EDGE('',*,*,#436,.F.);
#553=ORIENTED_EDGE('',*,*,#437,.F.);
#554=ORIENTED_EDGE('',*,*,#438,.F.);
#555=ORIENTED_EDGE('',*,*,#439,.T.);
#556=ORIENTED_EDGE('',*,*,#440,.F.);
#557=ORIENTED_EDGE('',*,*,#441,.F.);
#558=ORIENTED_EDGE('',*,*,#435,.F.);
#559=ORIENTED_EDGE('',*,*,#442,.F.);
#560=ORIENTED_EDGE('',*,*,#439,.F.);
#561=ORIENTED_EDGE('',*,*,#430,.T.);
#562=ORIENTED_EDGE('',*,*,#432,.T.);
#563=ORIENTED_EDGE('',*,*,#424,.T.);
#564=ORIENTED_EDGE('',*,*,#443,.F.);
#565=ORIENTED_EDGE('',*,*,#444,.T.);
#566=ORIENTED_EDGE('',*,*,#445,.T.);
#567=ORIENTED_EDGE('',*,*,#446,.T.);
#568=ORIENTED_EDGE('',*,*,#447,.F.);
#569=ORIENTED_EDGE('',*,*,#440,.T.);
#570=ORIENTED_EDGE('',*,*,#442,.T.);
#571=ORIENTED_EDGE('',*,*,#434,.T.);
#572=ORIENTED_EDGE('',*,*,#448,.F.);
#573=ORIENTED_EDGE('',*,*,#449,.F.);
#574=ORIENTED_EDGE('',*,*,#450,.T.);
#575=ORIENTED_EDGE('',*,*,#451,.F.);
#576=ORIENTED_EDGE('',*,*,#452,.F.);
#577=ORIENTED_EDGE('',*,*,#437,.T.);
#578=ORIENTED_EDGE('',*,*,#447,.T.);
#579=ORIENTED_EDGE('',*,*,#453,.T.);
#580=ORIENTED_EDGE('',*,*,#454,.T.);
#581=ORIENTED_EDGE('',*,*,#423,.T.);
#582=ORIENTED_EDGE('',*,*,#455,.T.);
#583=ORIENTED_EDGE('',*,*,#456,.T.);
#584=ORIENTED_EDGE('',*,*,#443,.T.);
#585=ORIENTED_EDGE('',*,*,#457,.F.);
#586=ORIENTED_EDGE('',*,*,#458,.T.);
#587=ORIENTED_EDGE('',*,*,#459,.T.);
#588=ORIENTED_EDGE('',*,*,#458,.F.);
#589=ORIENTED_EDGE('',*,*,#460,.F.);
#590=ORIENTED_EDGE('',*,*,#461,.T.);
#591=ORIENTED_EDGE('',*,*,#462,.T.);
#592=ORIENTED_EDGE('',*,*,#461,.F.);
#593=ORIENTED_EDGE('',*,*,#463,.F.);
#594=ORIENTED_EDGE('',*,*,#464,.T.);
#595=ORIENTED_EDGE('',*,*,#465,.T.);
#596=ORIENTED_EDGE('',*,*,#464,.F.);
#597=ORIENTED_EDGE('',*,*,#466,.F.);
#598=ORIENTED_EDGE('',*,*,#467,.T.);
#599=ORIENTED_EDGE('',*,*,#468,.T.);
#600=ORIENTED_EDGE('',*,*,#467,.F.);
#601=ORIENTED_EDGE('',*,*,#469,.F.);
#602=ORIENTED_EDGE('',*,*,#470,.F.);
#603=ORIENTED_EDGE('',*,*,#471,.F.);
#604=ORIENTED_EDGE('',*,*,#472,.F.);
#605=ORIENTED_EDGE('',*,*,#473,.T.);
#606=ORIENTED_EDGE('',*,*,#471,.T.);
#607=ORIENTED_EDGE('',*,*,#474,.T.);
#608=ORIENTED_EDGE('',*,*,#475,.F.);
#609=ORIENTED_EDGE('',*,*,#476,.F.);
#610=ORIENTED_EDGE('',*,*,#477,.F.);
#611=ORIENTED_EDGE('',*,*,#478,.F.);
#612=ORIENTED_EDGE('',*,*,#479,.F.);
#613=ORIENTED_EDGE('',*,*,#480,.F.);
#614=ORIENTED_EDGE('',*,*,#481,.F.);
#615=ORIENTED_EDGE('',*,*,#482,.T.);
#616=ORIENTED_EDGE('',*,*,#483,.F.);
#617=ORIENTED_EDGE('',*,*,#427,.T.);
#618=ORIENTED_EDGE('',*,*,#452,.T.);
#619=ORIENTED_EDGE('',*,*,#484,.F.);
#620=ORIENTED_EDGE('',*,*,#480,.T.);
#621=ORIENTED_EDGE('',*,*,#485,.F.);
#622=ORIENTED_EDGE('',*,*,#486,.T.);
#623=ORIENTED_EDGE('',*,*,#487,.F.);
#624=ORIENTED_EDGE('',*,*,#488,.T.);
#625=ORIENTED_EDGE('',*,*,#489,.F.);
#626=ORIENTED_EDGE('',*,*,#448,.T.);
#627=ORIENTED_EDGE('',*,*,#433,.T.);
#628=ORIENTED_EDGE('',*,*,#490,.T.);
#629=ORIENTED_EDGE('',*,*,#491,.T.);
#630=ORIENTED_EDGE('',*,*,#492,.T.);
#631=ORIENTED_EDGE('',*,*,#493,.T.);
#632=ORIENTED_EDGE('',*,*,#494,.T.);
#633=ORIENTED_EDGE('',*,*,#495,.T.);
#634=ORIENTED_EDGE('',*,*,#496,.T.);
#635=ORIENTED_EDGE('',*,*,#497,.T.);
#636=ORIENTED_EDGE('',*,*,#498,.T.);
#637=ORIENTED_EDGE('',*,*,#499,.F.);
#638=ORIENTED_EDGE('',*,*,#500,.F.);
#639=ORIENTED_EDGE('',*,*,#501,.F.);
#640=ORIENTED_EDGE('',*,*,#502,.F.);
#641=ORIENTED_EDGE('',*,*,#500,.T.);
#642=ORIENTED_EDGE('',*,*,#503,.F.);
#643=ORIENTED_EDGE('',*,*,#472,.T.);
#644=ORIENTED_EDGE('',*,*,#473,.F.);
#645=ORIENTED_EDGE('',*,*,#504,.F.);
#646=ORIENTED_EDGE('',*,*,#505,.T.);
#647=ORIENTED_EDGE('',*,*,#499,.T.);
#648=ORIENTED_EDGE('',*,*,#506,.T.);
#649=ORIENTED_EDGE('',*,*,#469,.T.);
#650=ORIENTED_EDGE('',*,*,#503,.T.);
#651=ORIENTED_EDGE('',*,*,#501,.T.);
#652=ORIENTED_EDGE('',*,*,#505,.F.);
#653=ORIENTED_EDGE('',*,*,#507,.F.);
#654=ORIENTED_EDGE('',*,*,#508,.T.);
#655=ORIENTED_EDGE('',*,*,#502,.T.);
#656=ORIENTED_EDGE('',*,*,#508,.F.);
#657=ORIENTED_EDGE('',*,*,#509,.F.);
#658=ORIENTED_EDGE('',*,*,#474,.F.);
#659=ORIENTED_EDGE('',*,*,#470,.T.);
#660=ORIENTED_EDGE('',*,*,#506,.F.);
#661=ORIENTED_EDGE('',*,*,#509,.T.);
#662=ORIENTED_EDGE('',*,*,#507,.T.);
#663=ORIENTED_EDGE('',*,*,#504,.T.);
#664=ORIENTED_EDGE('',*,*,#479,.T.);
#665=ORIENTED_EDGE('',*,*,#510,.T.);
#666=ORIENTED_EDGE('',*,*,#492,.F.);
#667=ORIENTED_EDGE('',*,*,#511,.F.);
#668=ORIENTED_EDGE('',*,*,#475,.T.);
#669=ORIENTED_EDGE('',*,*,#489,.T.);
#670=ORIENTED_EDGE('',*,*,#512,.T.);
#671=ORIENTED_EDGE('',*,*,#513,.T.);
#672=ORIENTED_EDGE('',*,*,#449,.T.);
#673=ORIENTED_EDGE('',*,*,#484,.T.);
#674=ORIENTED_EDGE('',*,*,#451,.T.);
#675=ORIENTED_EDGE('',*,*,#514,.T.);
#676=ORIENTED_EDGE('',*,*,#481,.T.);
#677=ORIENTED_EDGE('',*,*,#487,.T.);
#678=ORIENTED_EDGE('',*,*,#515,.T.);
#679=ORIENTED_EDGE('',*,*,#516,.T.);
#680=ORIENTED_EDGE('',*,*,#517,.T.);
#681=ORIENTED_EDGE('',*,*,#515,.F.);
#682=ORIENTED_EDGE('',*,*,#486,.F.);
#683=ORIENTED_EDGE('',*,*,#518,.F.);
#684=ORIENTED_EDGE('',*,*,#519,.T.);
#685=ORIENTED_EDGE('',*,*,#485,.T.);
#686=ORIENTED_EDGE('',*,*,#483,.T.);
#687=ORIENTED_EDGE('',*,*,#520,.T.);
#688=ORIENTED_EDGE('',*,*,#518,.T.);
#689=ORIENTED_EDGE('',*,*,#453,.F.);
#690=ORIENTED_EDGE('',*,*,#446,.F.);
#691=ORIENTED_EDGE('',*,*,#521,.T.);
#692=ORIENTED_EDGE('',*,*,#522,.F.);
#693=ORIENTED_EDGE('',*,*,#456,.F.);
#694=ORIENTED_EDGE('',*,*,#523,.F.);
#695=ORIENTED_EDGE('',*,*,#524,.T.);
#696=ORIENTED_EDGE('',*,*,#444,.F.);
#697=ORIENTED_EDGE('',*,*,#525,.F.);
#698=ORIENTED_EDGE('',*,*,#521,.F.);
#699=ORIENTED_EDGE('',*,*,#445,.F.);
#700=ORIENTED_EDGE('',*,*,#524,.F.);
#701=ORIENTED_EDGE('',*,*,#428,.T.);
#702=ORIENTED_EDGE('',*,*,#494,.F.);
#703=ORIENTED_EDGE('',*,*,#526,.F.);
#704=ORIENTED_EDGE('',*,*,#477,.T.);
#705=ORIENTED_EDGE('',*,*,#527,.T.);
#706=ORIENTED_EDGE('',*,*,#490,.F.);
#707=ORIENTED_EDGE('',*,*,#436,.T.);
#708=ORIENTED_EDGE('',*,*,#441,.T.);
#709=ORIENTED_EDGE('',*,*,#438,.T.);
#710=ORIENTED_EDGE('',*,*,#454,.F.);
#711=ORIENTED_EDGE('',*,*,#522,.T.);
#712=ORIENTED_EDGE('',*,*,#525,.T.);
#713=ORIENTED_EDGE('',*,*,#523,.T.);
#714=ORIENTED_EDGE('',*,*,#455,.F.);
#715=ORIENTED_EDGE('',*,*,#426,.T.);
#716=ORIENTED_EDGE('',*,*,#431,.T.);
#717=ORIENTED_EDGE('',*,*,#476,.T.);
#718=ORIENTED_EDGE('',*,*,#511,.T.);
#719=ORIENTED_EDGE('',*,*,#491,.F.);
#720=ORIENTED_EDGE('',*,*,#527,.F.);
#721=ORIENTED_EDGE('',*,*,#493,.F.);
#722=ORIENTED_EDGE('',*,*,#510,.F.);
#723=ORIENTED_EDGE('',*,*,#478,.T.);
#724=ORIENTED_EDGE('',*,*,#526,.T.);
#725=ORIENTED_EDGE('',*,*,#512,.F.);
#726=ORIENTED_EDGE('',*,*,#488,.F.);
#727=ORIENTED_EDGE('',*,*,#517,.F.);
#728=ORIENTED_EDGE('',*,*,#528,.T.);
#729=ORIENTED_EDGE('',*,*,#513,.F.);
#730=ORIENTED_EDGE('',*,*,#528,.F.);
#731=ORIENTED_EDGE('',*,*,#516,.F.);
#732=ORIENTED_EDGE('',*,*,#519,.F.);
#733=ORIENTED_EDGE('',*,*,#520,.F.);
#734=ORIENTED_EDGE('',*,*,#482,.F.);
#735=ORIENTED_EDGE('',*,*,#514,.F.);
#736=ORIENTED_EDGE('',*,*,#450,.F.);
#737=ORIENTED_EDGE('',*,*,#457,.T.);
#738=ORIENTED_EDGE('',*,*,#460,.T.);
#739=ORIENTED_EDGE('',*,*,#463,.T.);
#740=ORIENTED_EDGE('',*,*,#466,.T.);
#741=ORIENTED_EDGE('',*,*,#496,.F.);
#742=ORIENTED_EDGE('',*,*,#529,.T.);
#743=ORIENTED_EDGE('',*,*,#530,.T.);
#744=ORIENTED_EDGE('',*,*,#529,.F.);
#745=ORIENTED_EDGE('',*,*,#462,.F.);
#746=ORIENTED_EDGE('',*,*,#530,.F.);
#747=ORIENTED_EDGE('',*,*,#497,.F.);
#748=ORIENTED_EDGE('',*,*,#531,.T.);
#749=ORIENTED_EDGE('',*,*,#532,.T.);
#750=ORIENTED_EDGE('',*,*,#531,.F.);
#751=ORIENTED_EDGE('',*,*,#468,.F.);
#752=ORIENTED_EDGE('',*,*,#532,.F.);
#753=ORIENTED_EDGE('',*,*,#495,.F.);
#754=ORIENTED_EDGE('',*,*,#533,.T.);
#755=ORIENTED_EDGE('',*,*,#534,.T.);
#756=ORIENTED_EDGE('',*,*,#533,.F.);
#757=ORIENTED_EDGE('',*,*,#465,.F.);
#758=ORIENTED_EDGE('',*,*,#534,.F.);
#759=ORIENTED_EDGE('',*,*,#498,.F.);
#760=ORIENTED_EDGE('',*,*,#535,.T.);
#761=ORIENTED_EDGE('',*,*,#536,.T.);
#762=ORIENTED_EDGE('',*,*,#535,.F.);
#763=ORIENTED_EDGE('',*,*,#459,.F.);
#764=ORIENTED_EDGE('',*,*,#536,.F.);
#765=PLANE('',#856);
#766=PLANE('',#857);
#767=PLANE('',#858);
#768=PLANE('',#859);
#769=PLANE('',#860);
#770=PLANE('',#861);
#771=PLANE('',#862);
#772=PLANE('',#863);
#773=PLANE('',#864);
#774=PLANE('',#877);
#775=PLANE('',#878);
#776=PLANE('',#879);
#777=PLANE('',#880);
#778=PLANE('',#889);
#779=PLANE('',#890);
#780=PLANE('',#891);
#781=PLANE('',#892);
#782=PLANE('',#893);
#783=PLANE('',#894);
#784=PLANE('',#901);
#785=PLANE('',#904);
#786=PLANE('',#905);
#787=PLANE('',#906);
#788=PLANE('',#907);
#789=PLANE('',#908);
#790=PLANE('',#909);
#791=PLANE('',#910);
#792=PLANE('',#911);
#793=PLANE('',#914);
#794=PLANE('',#917);
#795=PLANE('',#920);
#796=PLANE('',#923);
#797=ADVANCED_FACE('',(#67),#765,.F.);
#798=ADVANCED_FACE('',(#68),#766,.F.);
#799=ADVANCED_FACE('',(#69),#767,.F.);
#800=ADVANCED_FACE('',(#70),#768,.F.);
#801=ADVANCED_FACE('',(#71),#769,.F.);
#802=ADVANCED_FACE('',(#72),#770,.F.);
#803=ADVANCED_FACE('',(#73),#771,.T.);
#804=ADVANCED_FACE('',(#74),#772,.T.);
#805=ADVANCED_FACE('',(#75),#773,.T.);
#806=ADVANCED_FACE('',(#76),#55,.F.);
#807=ADVANCED_FACE('',(#77),#56,.F.);
#808=ADVANCED_FACE('',(#78),#57,.F.);
#809=ADVANCED_FACE('',(#79),#58,.F.);
#810=ADVANCED_FACE('',(#80),#774,.F.);
#811=ADVANCED_FACE('',(#81),#775,.T.);
#812=ADVANCED_FACE('',(#82),#776,.T.);
#813=ADVANCED_FACE('',(#83,#19,#20,#21,#22),#777,.T.);
#814=ADVANCED_FACE('',(#84),#778,.T.);
#815=ADVANCED_FACE('',(#85),#779,.F.);
#816=ADVANCED_FACE('',(#86),#780,.F.);
#817=ADVANCED_FACE('',(#87),#781,.F.);
#818=ADVANCED_FACE('',(#88),#782,.F.);
#819=ADVANCED_FACE('',(#89),#783,.T.);
#820=ADVANCED_FACE('',(#90),#59,.T.);
#821=ADVANCED_FACE('',(#91),#60,.T.);
#822=ADVANCED_FACE('',(#92),#61,.T.);
#823=ADVANCED_FACE('',(#93),#784,.T.);
#824=ADVANCED_FACE('',(#94),#62,.T.);
#825=ADVANCED_FACE('',(#95),#785,.F.);
#826=ADVANCED_FACE('',(#96),#786,.F.);
#827=ADVANCED_FACE('',(#97),#787,.F.);
#828=ADVANCED_FACE('',(#98),#788,.T.);
#829=ADVANCED_FACE('',(#99),#789,.T.);
#830=ADVANCED_FACE('',(#100),#790,.T.);
#831=ADVANCED_FACE('',(#101),#791,.T.);
#832=ADVANCED_FACE('',(#102,#23,#24,#25,#26),#792,.F.);
#833=ADVANCED_FACE('',(#103),#63,.F.);
#834=ADVANCED_FACE('',(#104,#27),#793,.F.);
#835=ADVANCED_FACE('',(#105),#64,.F.);
#836=ADVANCED_FACE('',(#106,#28),#794,.F.);
#837=ADVANCED_FACE('',(#107),#65,.F.);
#838=ADVANCED_FACE('',(#108,#29),#795,.F.);
#839=ADVANCED_FACE('',(#109),#66,.F.);
#840=ADVANCED_FACE('',(#110,#30),#796,.F.);
#841=CLOSED_SHELL('',(#797,#798,#799,#800,#801,#802,#803,#804,#805,#806,
#807,#808,#809,#810,#811,#812,#813,#814,#815,#816,#817,#818,#819,#820,#821,
#822,#823,#824,#825,#826,#827,#828,#829,#830,#831,#832,#833,#834,#835,#836,
#837,#838,#839,#840));
#842=DERIVED_UNIT_ELEMENT(#844,1.);
#843=DERIVED_UNIT_ELEMENT(#1401,-3.);
#844=(
MASS_UNIT()
NAMED_UNIT(*)
SI_UNIT(.KILO.,.GRAM.)
);
#845=DERIVED_UNIT((#842,#843));
#846=MEASURE_REPRESENTATION_ITEM('density measure',
POSITIVE_RATIO_MEASURE(7850.),#845);
#847=PROPERTY_DEFINITION_REPRESENTATION(#852,#849);
#848=PROPERTY_DEFINITION_REPRESENTATION(#853,#850);
#849=REPRESENTATION('material name',(#851),#1398);
#850=REPRESENTATION('density',(#846),#1398);
#851=DESCRIPTIVE_REPRESENTATION_ITEM('Steel','Steel');
#852=PROPERTY_DEFINITION('material property','material name',#1413);
#853=PROPERTY_DEFINITION('material property','density of part',#1413);
#854=AXIS2_PLACEMENT_3D('',#1157,#925,#926);
#855=AXIS2_PLACEMENT_3D('',#1158,#927,#928);
#856=AXIS2_PLACEMENT_3D('',#1159,#929,#930);
#857=AXIS2_PLACEMENT_3D('',#1168,#935,#936);
#858=AXIS2_PLACEMENT_3D('',#1177,#941,#942);
#859=AXIS2_PLACEMENT_3D('',#1180,#945,#946);
#860=AXIS2_PLACEMENT_3D('',#1189,#951,#952);
#861=AXIS2_PLACEMENT_3D('',#1198,#957,#958);
#862=AXIS2_PLACEMENT_3D('',#1201,#961,#962);
#863=AXIS2_PLACEMENT_3D('',#1220,#973,#974);
#864=AXIS2_PLACEMENT_3D('',#1224,#977,#978);
#865=AXIS2_PLACEMENT_3D('',#1228,#981,#982);
#866=AXIS2_PLACEMENT_3D('',#1230,#983,#984);
#867=AXIS2_PLACEMENT_3D('',#1233,#986,#987);
#868=AXIS2_PLACEMENT_3D('',#1234,#988,#989);
#869=AXIS2_PLACEMENT_3D('',#1236,#990,#991);
#870=AXIS2_PLACEMENT_3D('',#1239,#993,#994);
#871=AXIS2_PLACEMENT_3D('',#1240,#995,#996);
#872=AXIS2_PLACEMENT_3D('',#1242,#997,#998);
#873=AXIS2_PLACEMENT_3D('',#1245,#1000,#1001);
#874=AXIS2_PLACEMENT_3D('',#1246,#1002,#1003);
#875=AXIS2_PLACEMENT_3D('',#1248,#1004,#1005);
#876=AXIS2_PLACEMENT_3D('',#1251,#1007,#1008);
#877=AXIS2_PLACEMENT_3D('',#1252,#1009,#1010);
#878=AXIS2_PLACEMENT_3D('',#1261,#1015,#1016);
#879=AXIS2_PLACEMENT_3D('',#1275,#1024,#1025);
#880=AXIS2_PLACEMENT_3D('',#1284,#1030,#1031);
#881=AXIS2_PLACEMENT_3D('',#1285,#1032,#1033);
#882=AXIS2_PLACEMENT_3D('',#1287,#1034,#1035);
#883=AXIS2_PLACEMENT_3D('',#1291,#1037,#1038);
#884=AXIS2_PLACEMENT_3D('',#1294,#1040,#1041);
#885=AXIS2_PLACEMENT_3D('',#1305,#1047,#1048);
#886=AXIS2_PLACEMENT_3D('',#1307,#1049,#1050);
#887=AXIS2_PLACEMENT_3D('',#1309,#1051,#1052);
#888=AXIS2_PLACEMENT_3D('',#1311,#1053,#1054);
#889=AXIS2_PLACEMENT_3D('',#1312,#1055,#1056);
#890=AXIS2_PLACEMENT_3D('',#1321,#1061,#1062);
#891=AXIS2_PLACEMENT_3D('',#1326,#1066,#1067);
#892=AXIS2_PLACEMENT_3D('',#1328,#1069,#1070);
#893=AXIS2_PLACEMENT_3D('',#1332,#1073,#1074);
#894=AXIS2_PLACEMENT_3D('',#1334,#1076,#1077);
#895=AXIS2_PLACEMENT_3D('',#1337,#1080,#1081);
#896=AXIS2_PLACEMENT_3D('',#1340,#1083,#1084);
#897=AXIS2_PLACEMENT_3D('',#1341,#1085,#1086);
#898=AXIS2_PLACEMENT_3D('',#1342,#1087,#1088);
#899=AXIS2_PLACEMENT_3D('',#1343,#1089,#1090);
#900=AXIS2_PLACEMENT_3D('',#1347,#1092,#1093);
#901=AXIS2_PLACEMENT_3D('',#1349,#1095,#1096);
#902=AXIS2_PLACEMENT_3D('',#1353,#1099,#1100);
#903=AXIS2_PLACEMENT_3D('',#1354,#1101,#1102);
#904=AXIS2_PLACEMENT_3D('',#1355,#1103,#1104);
#905=AXIS2_PLACEMENT_3D('',#1359,#1107,#1108);
#906=AXIS2_PLACEMENT_3D('',#1363,#1111,#1112);
#907=AXIS2_PLACEMENT_3D('',#1365,#1114,#1115);
#908=AXIS2_PLACEMENT_3D('',#1368,#1118,#1119);
#909=AXIS2_PLACEMENT_3D('',#1369,#1120,#1121);
#910=AXIS2_PLACEMENT_3D('',#1370,#1122,#1123);
#911=AXIS2_PLACEMENT_3D('',#1372,#1125,#1126);
#912=AXIS2_PLACEMENT_3D('',#1373,#1127,#1128);
#913=AXIS2_PLACEMENT_3D('',#1376,#1130,#1131);
#914=AXIS2_PLACEMENT_3D('',#1377,#1132,#1133);
#915=AXIS2_PLACEMENT_3D('',#1378,#1134,#1135);
#916=AXIS2_PLACEMENT_3D('',#1381,#1137,#1138);
#917=AXIS2_PLACEMENT_3D('',#1382,#1139,#1140);
#918=AXIS2_PLACEMENT_3D('',#1383,#1141,#1142);
#919=AXIS2_PLACEMENT_3D('',#1386,#1144,#1145);
#920=AXIS2_PLACEMENT_3D('',#1387,#1146,#1147);
#921=AXIS2_PLACEMENT_3D('',#1388,#1148,#1149);
#922=AXIS2_PLACEMENT_3D('',#1391,#1151,#1152);
#923=AXIS2_PLACEMENT_3D('',#1392,#1153,#1154);
#924=AXIS2_PLACEMENT_3D('',#1393,#1155,#1156);
#925=DIRECTION('axis',(0.,0.,1.));
#926=DIRECTION('refdir',(1.,0.,0.));
#927=DIRECTION('axis',(0.,0.,1.));
#928=DIRECTION('refdir',(1.,0.,0.));
#929=DIRECTION('center_axis',(1.,0.,0.));
#930=DIRECTION('ref_axis',(0.,-1.,0.));
#931=DIRECTION('',(0.,-1.,0.));
#932=DIRECTION('',(0.,0.,1.));
#933=DIRECTION('',(0.,-1.,0.));
#934=DIRECTION('',(0.,0.,-1.));
#935=DIRECTION('center_axis',(-1.,0.,0.));
#936=DIRECTION('ref_axis',(0.,1.,0.));
#937=DIRECTION('',(0.,1.,0.));
#938=DIRECTION('',(0.,0.,1.));
#939=DIRECTION('',(0.,1.,0.));
#940=DIRECTION('',(0.,0.,-1.));
#941=DIRECTION('center_axis',(0.,0.,-1.));
#942=DIRECTION('ref_axis',(-1.,0.,0.));
#943=DIRECTION('',(-1.,0.,0.));
#944=DIRECTION('',(1.,0.,0.));
#945=DIRECTION('center_axis',(1.,0.,0.));
#946=DIRECTION('ref_axis',(0.,-1.,0.));
#947=DIRECTION('',(0.,-1.,0.));
#948=DIRECTION('',(0.,0.,1.));
#949=DIRECTION('',(0.,-1.,0.));
#950=DIRECTION('',(0.,0.,-1.));
#951=DIRECTION('center_axis',(-1.,0.,0.));
#952=DIRECTION('ref_axis',(0.,1.,0.));
#953=DIRECTION('',(0.,1.,0.));
#954=DIRECTION('',(0.,0.,1.));
#955=DIRECTION('',(0.,1.,0.));
#956=DIRECTION('',(0.,0.,-1.));
#957=DIRECTION('center_axis',(0.,0.,-1.));
#958=DIRECTION('ref_axis',(-1.,0.,0.));
#959=DIRECTION('',(-1.,0.,0.));
#960=DIRECTION('',(1.,0.,0.));
#961=DIRECTION('center_axis',(0.,1.,0.));
#962=DIRECTION('ref_axis',(-1.,0.,0.));
#963=DIRECTION('',(-1.,0.,0.));
#964=DIRECTION('',(0.,0.,-1.));
#965=DIRECTION('',(1.,0.,0.));
#966=DIRECTION('',(0.,0.,1.));
#967=DIRECTION('',(-1.,0.,0.));
#968=DIRECTION('',(-1.,0.,0.));
#969=DIRECTION('',(0.,0.,1.));
#970=DIRECTION('',(-1.,0.,0.));
#971=DIRECTION('',(0.,0.,-1.));
#972=DIRECTION('',(-1.,0.,0.));
#973=DIRECTION('center_axis',(0.,0.,1.));
#974=DIRECTION('ref_axis',(1.,0.,0.));
#975=DIRECTION('',(0.,-1.,0.));
#976=DIRECTION('',(1.,0.,0.));
#977=DIRECTION('center_axis',(0.,0.,1.));
#978=DIRECTION('ref_axis',(1.,0.,0.));
#979=DIRECTION('',(1.,0.,0.));
#980=DIRECTION('',(0.,1.,0.));
#981=DIRECTION('center_axis',(0.,0.,1.));
#982=DIRECTION('ref_axis',(1.,0.,0.));
#983=DIRECTION('center_axis',(0.,0.,1.));
#984=DIRECTION('ref_axis',(1.,0.,0.));
#985=DIRECTION('',(0.,0.,1.));
#986=DIRECTION('center_axis',(0.,0.,1.));
#987=DIRECTION('ref_axis',(1.,0.,0.));
#988=DIRECTION('center_axis',(0.,0.,1.));
#989=DIRECTION('ref_axis',(1.,0.,0.));
#990=DIRECTION('center_axis',(0.,0.,1.));
#991=DIRECTION('ref_axis',(1.,0.,0.));
#992=DIRECTION('',(0.,0.,1.));
#993=DIRECTION('center_axis',(0.,0.,1.));
#994=DIRECTION('ref_axis',(1.,0.,0.));
#995=DIRECTION('center_axis',(0.,0.,1.));
#996=DIRECTION('ref_axis',(1.,0.,0.));
#997=DIRECTION('center_axis',(0.,0.,1.));
#998=DIRECTION('ref_axis',(1.,0.,0.));
#999=DIRECTION('',(0.,0.,1.));
#1000=DIRECTION('center_axis',(0.,0.,1.));
#1001=DIRECTION('ref_axis',(1.,0.,0.));
#1002=DIRECTION('center_axis',(0.,0.,1.));
#1003=DIRECTION('ref_axis',(1.,0.,0.));
#1004=DIRECTION('center_axis',(0.,0.,1.));
#1005=DIRECTION('ref_axis',(1.,0.,0.));
#1006=DIRECTION('',(0.,0.,1.));
#1007=DIRECTION('center_axis',(0.,0.,1.));
#1008=DIRECTION('ref_axis',(1.,0.,0.));
#1009=DIRECTION('center_axis',(0.,1.,0.));
#1010=DIRECTION('ref_axis',(0.,0.,1.));
#1011=DIRECTION('',(-1.,0.,0.));
#1012=DIRECTION('',(0.,0.,-1.));
#1013=DIRECTION('',(1.,0.,0.));
#1014=DIRECTION('',(0.,0.,1.));
#1015=DIRECTION('center_axis',(0.,0.,1.));
#1016=DIRECTION('ref_axis',(1.,0.,0.));
#1017=DIRECTION('',(0.,1.,0.));
#1018=DIRECTION('',(0.,-1.,0.));
#1019=DIRECTION('',(-1.,0.,0.));
#1020=DIRECTION('',(0.,-1.,0.));
#1021=DIRECTION('',(1.,0.,0.));
#1022=DIRECTION('',(0.,1.,0.));
#1023=DIRECTION('',(-1.,0.,0.));
#1024=DIRECTION('center_axis',(-1.,0.,0.));
#1025=DIRECTION('ref_axis',(0.,-1.,0.));
#1026=DIRECTION('',(0.,-1.,0.));
#1027=DIRECTION('',(0.,0.,1.));
#1028=DIRECTION('',(0.,-1.,0.));
#1029=DIRECTION('',(0.,0.,-1.));
#1030=DIRECTION('center_axis',(0.,0.,1.));
#1031=DIRECTION('ref_axis',(1.,0.,0.));
#1032=DIRECTION('center_axis',(0.,0.,-1.));
#1033=DIRECTION('ref_axis',(-0.707106781186547,0.707106781186547,0.));
#1034=DIRECTION('center_axis',(0.,0.,-1.));
#1035=DIRECTION('ref_axis',(-0.707106781186547,-0.707106781186547,0.));
#1036=DIRECTION('',(1.,0.,0.));
#1037=DIRECTION('center_axis',(0.,0.,-1.));
#1038=DIRECTION('ref_axis',(0.707106781186547,-0.707106781186547,0.));
#1039=DIRECTION('',(0.,1.,0.));
#1040=DIRECTION('center_axis',(0.,0.,-1.));
#1041=DIRECTION('ref_axis',(0.707106781186547,0.707106781186547,0.));
#1042=DIRECTION('',(1.,0.,0.));
#1043=DIRECTION('',(0.,-1.,0.));
#1044=DIRECTION('',(-1.,0.,0.));
#1045=DIRECTION('',(0.,1.,0.));
#1046=DIRECTION('',(1.,0.,0.));
#1047=DIRECTION('center_axis',(0.,0.,-1.));
#1048=DIRECTION('ref_axis',(1.,0.,0.));
#1049=DIRECTION('center_axis',(0.,0.,-1.));
#1050=DIRECTION('ref_axis',(1.,0.,0.));
#1051=DIRECTION('center_axis',(0.,0.,-1.));
#1052=DIRECTION('ref_axis',(1.,0.,0.));
#1053=DIRECTION('center_axis',(0.,0.,-1.));
#1054=DIRECTION('ref_axis',(1.,0.,0.));
#1055=DIRECTION('center_axis',(0.,1.,0.));
#1056=DIRECTION('ref_axis',(0.,0.,1.));
#1057=DIRECTION('',(1.,0.,0.));
#1058=DIRECTION('',(0.,0.,-1.));
#1059=DIRECTION('',(-1.,0.,0.));
#1060=DIRECTION('',(0.,0.,1.));
#1061=DIRECTION('center_axis',(-1.,0.,0.));
#1062=DIRECTION('ref_axis',(0.,0.,-1.));
#1063=DIRECTION('',(0.,-1.,0.));
#1064=DIRECTION('',(0.,0.,-1.));
#1065=DIRECTION('',(0.,-1.,0.));
#1066=DIRECTION('center_axis',(0.,0.,-1.));
#1067=DIRECTION('ref_axis',(1.,0.,0.));
#1068=DIRECTION('',(0.,1.,0.));
#1069=DIRECTION('center_axis',(0.,0.,1.));
#1070=DIRECTION('ref_axis',(-1.,0.,0.));
#1071=DIRECTION('',(-1.,0.,0.));
#1072=DIRECTION('',(0.,-1.,0.));
#1073=DIRECTION('center_axis',(1.,0.,0.));
#1074=DIRECTION('ref_axis',(0.,0.,1.));
#1075=DIRECTION('',(0.,0.,1.));
#1076=DIRECTION('center_axis',(0.,1.,0.));
#1077=DIRECTION('ref_axis',(-1.,0.,0.));
#1078=DIRECTION('',(0.,0.,1.));
#1079=DIRECTION('',(0.,0.,1.));
#1080=DIRECTION('center_axis',(0.,0.,1.));
#1081=DIRECTION('ref_axis',(0.707106781186547,0.707106781186547,0.));
#1082=DIRECTION('',(0.,0.,-1.));
#1083=DIRECTION('center_axis',(0.,0.,1.));
#1084=DIRECTION('ref_axis',(0.707106781186547,0.707106781186547,0.));
#1085=DIRECTION('center_axis',(0.,0.,1.));
#1086=DIRECTION('ref_axis',(-0.707106781186547,0.707106781186547,0.));
#1087=DIRECTION('center_axis',(0.,0.,1.));
#1088=DIRECTION('ref_axis',(-0.707106781186547,0.707106781186547,0.));
#1089=DIRECTION('center_axis',(0.,0.,1.));
#1090=DIRECTION('ref_axis',(0.707106781186547,-0.707106781186547,0.));
#1091=DIRECTION('',(0.,0.,-1.));
#1092=DIRECTION('center_axis',(0.,0.,1.));
#1093=DIRECTION('ref_axis',(0.707106781186547,-0.707106781186547,0.));
#1094=DIRECTION('',(0.,0.,1.));
#1095=DIRECTION('center_axis',(0.,-1.,0.));
#1096=DIRECTION('ref_axis',(1.,0.,0.));
#1097=DIRECTION('',(0.,0.,1.));
#1098=DIRECTION('',(1.,0.,0.));
#1099=DIRECTION('center_axis',(0.,0.,1.));
#1100=DIRECTION('ref_axis',(-0.707106781186547,-0.707106781186547,0.));
#1101=DIRECTION('center_axis',(0.,0.,1.));
#1102=DIRECTION('ref_axis',(-0.707106781186547,-0.707106781186547,0.));
#1103=DIRECTION('center_axis',(1.,0.,0.));
#1104=DIRECTION('ref_axis',(0.,-1.,0.));
#1105=DIRECTION('',(0.,-1.,0.));
#1106=DIRECTION('',(0.,0.,-1.));
#1107=DIRECTION('center_axis',(-1.,0.,0.));
#1108=DIRECTION('ref_axis',(0.,1.,0.));
#1109=DIRECTION('',(0.,0.,1.));
#1110=DIRECTION('',(0.,1.,0.));
#1111=DIRECTION('center_axis',(0.,0.,-1.));
#1112=DIRECTION('ref_axis',(-1.,0.,0.));
#1113=DIRECTION('',(-1.,0.,0.));
#1114=DIRECTION('center_axis',(0.,-1.,0.));
#1115=DIRECTION('ref_axis',(1.,0.,0.));
#1116=DIRECTION('',(0.,0.,1.));
#1117=DIRECTION('',(0.,0.,1.));
#1118=DIRECTION('center_axis',(-1.,0.,0.));
#1119=DIRECTION('ref_axis',(0.,-1.,0.));
#1120=DIRECTION('center_axis',(1.,0.,0.));
#1121=DIRECTION('ref_axis',(0.,1.,0.));
#1122=DIRECTION('center_axis',(1.,0.,0.));
#1123=DIRECTION('ref_axis',(0.,1.,0.));
#1124=DIRECTION('',(0.,1.,0.));
#1125=DIRECTION('center_axis',(0.,0.,1.));
#1126=DIRECTION('ref_axis',(1.,0.,0.));
#1127=DIRECTION('center_axis',(0.,0.,1.));
#1128=DIRECTION('ref_axis',(1.,0.,0.));
#1129=DIRECTION('',(0.,0.,-1.));
#1130=DIRECTION('center_axis',(0.,0.,-1.));
#1131=DIRECTION('ref_axis',(1.,0.,0.));
#1132=DIRECTION('center_axis',(0.,0.,1.));
#1133=DIRECTION('ref_axis',(1.,0.,0.));
#1134=DIRECTION('center_axis',(0.,0.,1.));
#1135=DIRECTION('ref_axis',(1.,0.,0.));
#1136=DIRECTION('',(0.,0.,-1.));
#1137=DIRECTION('center_axis',(0.,0.,-1.));
#1138=DIRECTION('ref_axis',(1.,0.,0.));
#1139=DIRECTION('center_axis',(0.,0.,1.));
#1140=DIRECTION('ref_axis',(1.,0.,0.));
#1141=DIRECTION('center_axis',(0.,0.,1.));
#1142=DIRECTION('ref_axis',(1.,0.,0.));
#1143=DIRECTION('',(0.,0.,-1.));
#1144=DIRECTION('center_axis',(0.,0.,-1.));
#1145=DIRECTION('ref_axis',(1.,0.,0.));
#1146=DIRECTION('center_axis',(0.,0.,1.));
#1147=DIRECTION('ref_axis',(1.,0.,0.));
#1148=DIRECTION('center_axis',(0.,0.,1.));
#1149=DIRECTION('ref_axis',(1.,0.,0.));
#1150=DIRECTION('',(0.,0.,-1.));
#1151=DIRECTION('center_axis',(0.,0.,-1.));
#1152=DIRECTION('ref_axis',(1.,0.,0.));
#1153=DIRECTION('center_axis',(0.,0.,1.));
#1154=DIRECTION('ref_axis',(1.,0.,0.));
#1155=DIRECTION('',(0.,0.,1.));
#1156=DIRECTION('',(1.,0.,0.));
#1157=CARTESIAN_POINT('',(0.,0.,0.));
#1158=CARTESIAN_POINT('',(0.,0.,0.));
#1159=CARTESIAN_POINT('Origin',(17.155,93.94,13.));
#1160=CARTESIAN_POINT('',(17.155,93.94,13.));
#1161=CARTESIAN_POINT('',(17.155,84.4399955380894,13.));
#1162=CARTESIAN_POINT('',(17.155,91.44,13.));
#1163=CARTESIAN_POINT('',(17.155,93.94,5.));
#1164=CARTESIAN_POINT('',(17.155,93.94,6.5));
#1165=CARTESIAN_POINT('',(17.155,84.44,5.));
#1166=CARTESIAN_POINT('',(17.155,93.94,5.));
#1167=CARTESIAN_POINT('',(17.155,84.44,6.5));
#1168=CARTESIAN_POINT('Origin',(4.155,84.4399955380894,13.));
#1169=CARTESIAN_POINT('',(4.155,84.4399955380894,13.));
#1170=CARTESIAN_POINT('',(4.155,93.94,13.));
#1171=CARTESIAN_POINT('',(4.155,86.6899977690447,13.));
#1172=CARTESIAN_POINT('',(4.155,84.44,5.));
#1173=CARTESIAN_POINT('',(4.155,84.44,6.5));
#1174=CARTESIAN_POINT('',(4.155,93.94,5.));
#1175=CARTESIAN_POINT('',(4.155,84.4399955380894,5.));
#1176=CARTESIAN_POINT('',(4.15500000000001,93.94,6.5));
#1177=CARTESIAN_POINT('Origin',(10.655,89.1899977690447,5.));
#1178=CARTESIAN_POINT('',(5.3275,84.44,5.));
#1179=CARTESIAN_POINT('',(40.8075,93.94,5.));
#1180=CARTESIAN_POINT('Origin',(56.655,93.94,13.));
#1181=CARTESIAN_POINT('',(56.655,93.94,13.));
#1182=CARTESIAN_POINT('',(56.655,84.44,13.));
#1183=CARTESIAN_POINT('',(56.655,91.44,13.));
#1184=CARTESIAN_POINT('',(56.655,93.94,5.));
#1185=CARTESIAN_POINT('',(56.655,93.94,6.5));
#1186=CARTESIAN_POINT('',(56.655,84.44,5.));
#1187=CARTESIAN_POINT('',(56.655,93.94,5.));
#1188=CARTESIAN_POINT('',(56.655,84.44,6.5));
#1189=CARTESIAN_POINT('Origin',(43.655,84.44,13.));
#1190=CARTESIAN_POINT('',(43.655,84.44,13.));
#1191=CARTESIAN_POINT('',(43.655,93.94,13.));
#1192=CARTESIAN_POINT('',(43.655,86.69,13.));
#1193=CARTESIAN_POINT('',(43.655,84.44,5.));
#1194=CARTESIAN_POINT('',(43.655,84.44,6.5));
#1195=CARTESIAN_POINT('',(43.655,93.94,5.));
#1196=CARTESIAN_POINT('',(43.655,84.44,5.));
#1197=CARTESIAN_POINT('',(43.655,93.94,6.5));
#1198=CARTESIAN_POINT('Origin',(50.155,89.19,5.));
#1199=CARTESIAN_POINT('',(25.0775,84.44,5.));
#1200=CARTESIAN_POINT('',(60.5575,93.94,5.));
#1201=CARTESIAN_POINT('Origin',(70.96,93.94,0.));
#1202=CARTESIAN_POINT('',(21.155,93.94,13.));
#1203=CARTESIAN_POINT('',(70.96,93.94,13.));
#1204=CARTESIAN_POINT('',(21.155,93.94,5.5));
#1205=CARTESIAN_POINT('',(21.155,93.94,6.5));
#1206=CARTESIAN_POINT('',(39.655,93.94,5.5));
#1207=CARTESIAN_POINT('',(50.6825,93.94,5.5));
#1208=CARTESIAN_POINT('',(39.655,93.94,13.));
#1209=CARTESIAN_POINT('',(39.655,93.94,6.5));
#1210=CARTESIAN_POINT('',(70.96,93.94,13.));
#1211=CARTESIAN_POINT('',(65.96,93.94,13.));
#1212=CARTESIAN_POINT('',(70.96,93.94,13.));
#1213=CARTESIAN_POINT('',(65.96,93.94,0.));
#1214=CARTESIAN_POINT('',(65.96,93.94,0.));
#1215=CARTESIAN_POINT('',(-4.5,93.94,0.));
#1216=CARTESIAN_POINT('',(70.96,93.94,0.));
#1217=CARTESIAN_POINT('',(-4.5,93.94,13.));
#1218=CARTESIAN_POINT('',(-4.5,93.94,0.));
#1219=CARTESIAN_POINT('',(70.96,93.94,13.));
#1220=CARTESIAN_POINT('Origin',(-4.5,88.94,13.));
#1221=CARTESIAN_POINT('',(39.655,84.44,13.));
#1222=CARTESIAN_POINT('',(39.655,91.44,13.));
#1223=CARTESIAN_POINT('',(61.46,84.44,13.));
#1224=CARTESIAN_POINT('Origin',(-4.5,88.94,13.));
#1225=CARTESIAN_POINT('',(21.155,84.44,13.));
#1226=CARTESIAN_POINT('',(61.46,84.44,13.));
#1227=CARTESIAN_POINT('',(21.155,86.69,13.));
#1228=CARTESIAN_POINT('Origin',(-4.50000021373853,88.9400042244233,0.));
#1229=CARTESIAN_POINT('',(-7.65000021373853,88.9400042244233,0.));
#1230=CARTESIAN_POINT('Origin',(-4.50000021373853,88.9400042244233,0.));
#1231=CARTESIAN_POINT('',(-7.65000021373853,88.9400042244233,3.1));
#1232=CARTESIAN_POINT('',(-7.65000021373853,88.9400042244233,0.));
#1233=CARTESIAN_POINT('Origin',(-4.50000021373853,88.9400042244233,3.1));
#1234=CARTESIAN_POINT('Origin',(-4.50000006705523,-5.50000008195639,0.));
#1235=CARTESIAN_POINT('',(-7.65000006705522,-5.50000008195639,0.));
#1236=CARTESIAN_POINT('Origin',(-4.50000006705523,-5.50000008195639,0.));
#1237=CARTESIAN_POINT('',(-7.65000006705522,-5.50000008195639,3.1));
#1238=CARTESIAN_POINT('',(-7.65000006705522,-5.50000008195639,0.));
#1239=CARTESIAN_POINT('Origin',(-4.50000006705523,-5.50000008195639,3.1));
#1240=CARTESIAN_POINT('Origin',(65.9600031329319,88.9400042244233,0.));
#1241=CARTESIAN_POINT('',(62.8100031329319,88.9400042244233,0.));
#1242=CARTESIAN_POINT('Origin',(65.9600031329319,88.9400042244233,0.));
#1243=CARTESIAN_POINT('',(62.8100031329319,88.9400042244233,3.1));
#1244=CARTESIAN_POINT('',(62.8100031329319,88.9400042244233,0.));
#1245=CARTESIAN_POINT('Origin',(65.9600031329319,88.9400042244233,3.1));
#1246=CARTESIAN_POINT('Origin',(65.9600031329319,-5.50000026123598,0.));
#1247=CARTESIAN_POINT('',(62.8100031329319,-5.50000026123598,0.));
#1248=CARTESIAN_POINT('Origin',(65.9600031329319,-5.50000026123598,0.));
#1249=CARTESIAN_POINT('',(62.8100031329319,-5.50000026123598,3.1));
#1250=CARTESIAN_POINT('',(62.8100031329319,-5.50000026123598,0.));
#1251=CARTESIAN_POINT('Origin',(65.9600031329319,-5.50000026123598,3.1));
#1252=CARTESIAN_POINT('Origin',(30.73,2.6,2.02664826463306));
#1253=CARTESIAN_POINT('',(38.53,2.6,1.05329652926613));
#1254=CARTESIAN_POINT('',(22.93,2.6,1.05329652926613));
#1255=CARTESIAN_POINT('',(22.93,2.6,1.05329652926613));
#1256=CARTESIAN_POINT('',(38.53,2.6,3.));
#1257=CARTESIAN_POINT('',(38.53,2.6,1.05329652926613));
#1258=CARTESIAN_POINT('',(22.93,2.6,3.));
#1259=CARTESIAN_POINT('',(30.73,2.6,3.));
#1260=CARTESIAN_POINT('',(22.93,2.6,12.1532965292661));
#1261=CARTESIAN_POINT('Origin',(30.73,42.22,3.));
#1262=CARTESIAN_POINT('',(22.93,0.,3.));
#1263=CARTESIAN_POINT('',(22.93,21.11,3.));
#1264=CARTESIAN_POINT('',(38.53,0.,3.));
#1265=CARTESIAN_POINT('',(38.53,21.11,3.));
#1266=CARTESIAN_POINT('',(61.46,0.,3.));
#1267=CARTESIAN_POINT('',(46.095,0.,3.));
#1268=CARTESIAN_POINT('',(61.46,84.44,3.));
#1269=CARTESIAN_POINT('',(61.46,63.33,3.));
#1270=CARTESIAN_POINT('',(0.,84.44,3.));
#1271=CARTESIAN_POINT('',(15.365,84.44,3.));
#1272=CARTESIAN_POINT('',(0.,0.,3.));
#1273=CARTESIAN_POINT('',(0.,21.11,3.));
#1274=CARTESIAN_POINT('',(46.095,0.,3.));
#1275=CARTESIAN_POINT('Origin',(-9.5,93.94,0.));
#1276=CARTESIAN_POINT('',(-9.5,88.94,13.));
#1277=CARTESIAN_POINT('',(-9.5,-5.50000000000001,13.));
#1278=CARTESIAN_POINT('',(-9.5,93.94,13.));
#1279=CARTESIAN_POINT('',(-9.5,88.94,0.));
#1280=CARTESIAN_POINT('',(-9.5,88.94,0.));
#1281=CARTESIAN_POINT('',(-9.5,-5.50000000000001,0.));
#1282=CARTESIAN_POINT('',(-9.5,93.94,0.));
#1283=CARTESIAN_POINT('',(-9.5,-5.50000000000001,0.));
#1284=CARTESIAN_POINT('Origin',(-4.5,88.94,13.));
#1285=CARTESIAN_POINT('Origin',(-4.5,88.94,13.));
#1286=CARTESIAN_POINT('',(-4.5,-10.5,13.));
#1287=CARTESIAN_POINT('Origin',(-4.5,-5.50000000000001,13.));
#1288=CARTESIAN_POINT('',(65.96,-10.5,13.));
#1289=CARTESIAN_POINT('',(-9.5,-10.5,13.));
#1290=CARTESIAN_POINT('',(70.96,-5.50000000000001,13.));
#1291=CARTESIAN_POINT('Origin',(65.96,-5.50000000000001,13.));
#1292=CARTESIAN_POINT('',(70.96,88.94,13.));
#1293=CARTESIAN_POINT('',(70.96,-10.5,13.));
#1294=CARTESIAN_POINT('Origin',(65.96,88.94,13.));
#1295=CARTESIAN_POINT('',(61.46,84.44,13.));
#1296=CARTESIAN_POINT('',(61.46,84.44,13.));
#1297=CARTESIAN_POINT('',(61.46,0.,13.));
#1298=CARTESIAN_POINT('',(61.46,0.,13.));
#1299=CARTESIAN_POINT('',(0.,0.,13.));
#1300=CARTESIAN_POINT('',(0.,0.,13.));
#1301=CARTESIAN_POINT('',(0.,84.44,13.));
#1302=CARTESIAN_POINT('',(0.,84.44,13.));
#1303=CARTESIAN_POINT('',(61.46,84.44,13.));
#1304=CARTESIAN_POINT('',(64.26,88.94,13.));
#1305=CARTESIAN_POINT('Origin',(65.96,88.94,13.));
#1306=CARTESIAN_POINT('',(-6.2,-5.50000000000001,13.));
#1307=CARTESIAN_POINT('Origin',(-4.5,-5.50000000000001,13.));
#1308=CARTESIAN_POINT('',(64.26,-5.50000000000001,13.));
#1309=CARTESIAN_POINT('Origin',(65.96,-5.50000000000001,13.));
#1310=CARTESIAN_POINT('',(-6.2,88.94,13.));
#1311=CARTESIAN_POINT('Origin',(-4.5,88.94,13.));
#1312=CARTESIAN_POINT('Origin',(30.73,-8.5,6.60329652926613));
#1313=CARTESIAN_POINT('',(22.93,-8.5,1.05329652926613));
#1314=CARTESIAN_POINT('',(38.53,-8.5,1.05329652926613));
#1315=CARTESIAN_POINT('',(26.83,-8.5,1.05329652926613));
#1316=CARTESIAN_POINT('',(22.93,-8.5,12.1532965292661));
#1317=CARTESIAN_POINT('',(22.93,-8.5,9.37829652926613));
#1318=CARTESIAN_POINT('',(38.53,-8.5,12.1532965292661));
#1319=CARTESIAN_POINT('',(34.63,-8.5,12.1532965292661));
#1320=CARTESIAN_POINT('',(38.53,-8.5,3.82829652926613));
#1321=CARTESIAN_POINT('Origin',(22.93,0.,12.1532965292661));
#1322=CARTESIAN_POINT('',(22.93,0.,1.05329652926613));
#1323=CARTESIAN_POINT('',(22.93,0.,12.1532965292661));
#1324=CARTESIAN_POINT('',(22.93,0.,6.07664826463306));
#1325=CARTESIAN_POINT('',(22.93,0.,12.1532965292661));
#1326=CARTESIAN_POINT('Origin',(22.93,0.,1.05329652926613));
#1327=CARTESIAN_POINT('',(38.53,0.,1.05329652926613));
#1328=CARTESIAN_POINT('Origin',(38.53,0.,12.1532965292661));
#1329=CARTESIAN_POINT('',(38.53,0.,12.1532965292661));
#1330=CARTESIAN_POINT('',(49.995,0.,12.1532965292661));
#1331=CARTESIAN_POINT('',(38.53,0.,12.1532965292661));
#1332=CARTESIAN_POINT('Origin',(38.53,0.,1.05329652926613));
#1333=CARTESIAN_POINT('',(38.53,0.,0.526648264633063));
#1334=CARTESIAN_POINT('Origin',(61.46,0.,0.));
#1335=CARTESIAN_POINT('',(0.,0.,0.));
#1336=CARTESIAN_POINT('',(61.46,0.,0.));
#1337=CARTESIAN_POINT('Origin',(65.96,88.94,0.));
#1338=CARTESIAN_POINT('',(70.96,88.94,0.));
#1339=CARTESIAN_POINT('',(70.96,88.94,0.));
#1340=CARTESIAN_POINT('Origin',(65.96,88.94,0.));
#1341=CARTESIAN_POINT('Origin',(-4.5,88.94,0.));
#1342=CARTESIAN_POINT('Origin',(-4.5,88.94,0.));
#1343=CARTESIAN_POINT('Origin',(65.96,-5.50000000000001,0.));
#1344=CARTESIAN_POINT('',(65.96,-10.5,0.));
#1345=CARTESIAN_POINT('',(65.96,-10.5,0.));
#1346=CARTESIAN_POINT('',(70.96,-5.50000000000001,0.));
#1347=CARTESIAN_POINT('Origin',(65.96,-5.50000000000001,0.));
#1348=CARTESIAN_POINT('',(70.96,-5.50000000000001,0.));
#1349=CARTESIAN_POINT('Origin',(-9.5,-10.5,0.));
#1350=CARTESIAN_POINT('',(-4.5,-10.5,0.));
#1351=CARTESIAN_POINT('',(-4.5,-10.5,0.));
#1352=CARTESIAN_POINT('',(-9.5,-10.5,0.));
#1353=CARTESIAN_POINT('Origin',(-4.5,-5.50000000000001,0.));
#1354=CARTESIAN_POINT('Origin',(-4.5,-5.50000000000001,0.));
#1355=CARTESIAN_POINT('Origin',(39.655,93.94,13.));
#1356=CARTESIAN_POINT('',(39.655,84.44,5.5));
#1357=CARTESIAN_POINT('',(39.655,93.94,5.5));
#1358=CARTESIAN_POINT('',(39.655,84.44,6.5));
#1359=CARTESIAN_POINT('Origin',(21.155,84.44,13.));
#1360=CARTESIAN_POINT('',(21.155,84.44,5.5));
#1361=CARTESIAN_POINT('',(21.155,84.44,6.5));
#1362=CARTESIAN_POINT('',(21.155,84.44,5.5));
#1363=CARTESIAN_POINT('Origin',(30.405,89.19,5.5));
#1364=CARTESIAN_POINT('',(15.2025,84.44,5.5));
#1365=CARTESIAN_POINT('Origin',(0.,84.44,0.));
#1366=CARTESIAN_POINT('',(0.,84.44,0.));
#1367=CARTESIAN_POINT('',(61.46,84.44,0.));
#1368=CARTESIAN_POINT('Origin',(61.46,84.44,0.));
#1369=CARTESIAN_POINT('Origin',(0.,0.,0.));
#1370=CARTESIAN_POINT('Origin',(70.96,-10.5,0.));
#1371=CARTESIAN_POINT('',(70.96,-10.5,0.));
#1372=CARTESIAN_POINT('Origin',(30.73,41.72,0.));
#1373=CARTESIAN_POINT('Origin',(-4.5,-5.50000000000001,3.1));
#1374=CARTESIAN_POINT('',(-6.2,-5.50000000000001,3.1));
#1375=CARTESIAN_POINT('',(-6.2,-5.50000000000001,3.1));
#1376=CARTESIAN_POINT('Origin',(-4.5,-5.50000000000001,3.1));
#1377=CARTESIAN_POINT('Origin',(-4.5,-5.50000000000001,3.1));
#1378=CARTESIAN_POINT('Origin',(65.96,-5.50000000000001,3.1));
#1379=CARTESIAN_POINT('',(64.26,-5.50000000000001,3.1));
#1380=CARTESIAN_POINT('',(64.26,-5.50000000000001,3.1));
#1381=CARTESIAN_POINT('Origin',(65.96,-5.50000000000001,3.1));
#1382=CARTESIAN_POINT('Origin',(65.96,-5.50000000000001,3.1));
#1383=CARTESIAN_POINT('Origin',(65.96,88.94,3.1));
#1384=CARTESIAN_POINT('',(64.26,88.94,3.1));
#1385=CARTESIAN_POINT('',(64.26,88.94,3.1));
#1386=CARTESIAN_POINT('Origin',(65.96,88.94,3.1));
#1387=CARTESIAN_POINT('Origin',(65.96,88.94,3.1));
#1388=CARTESIAN_POINT('Origin',(-4.5,88.94,3.1));
#1389=CARTESIAN_POINT('',(-6.2,88.94,3.1));
#1390=CARTESIAN_POINT('',(-6.2,88.94,3.1));
#1391=CARTESIAN_POINT('Origin',(-4.5,88.94,3.1));
#1392=CARTESIAN_POINT('Origin',(-4.5,88.94,3.1));
#1393=CARTESIAN_POINT('',(0.,0.,0.));
#1394=UNCERTAINTY_MEASURE_WITH_UNIT(LENGTH_MEASURE(0.01),#1400,
'DISTANCE_ACCURACY_VALUE',
'Maximum model space distance between geometric entities at asserted c
onnectivities');
#1395=UNCERTAINTY_MEASURE_WITH_UNIT(LENGTH_MEASURE(0.01),#1400,
'DISTANCE_ACCURACY_VALUE',
'Maximum model space distance between geometric entities at asserted c
onnectivities');
#1396=UNCERTAINTY_MEASURE_WITH_UNIT(LENGTH_MEASURE(0.01),#1400,
'DISTANCE_ACCURACY_VALUE',
'Maximum model space distance between geometric entities at asserted c
onnectivities');
#1397=(
GEOMETRIC_REPRESENTATION_CONTEXT(3)
GLOBAL_UNCERTAINTY_ASSIGNED_CONTEXT((#1394))
GLOBAL_UNIT_ASSIGNED_CONTEXT((#1400,#1402,#1403))
REPRESENTATION_CONTEXT('','3D')
);
#1398=(
GEOMETRIC_REPRESENTATION_CONTEXT(3)
GLOBAL_UNCERTAINTY_ASSIGNED_CONTEXT((#1395))
GLOBAL_UNIT_ASSIGNED_CONTEXT((#1400,#1402,#1403))
REPRESENTATION_CONTEXT('','3D')
);
#1399=(
GEOMETRIC_REPRESENTATION_CONTEXT(3)
GLOBAL_UNCERTAINTY_ASSIGNED_CONTEXT((#1396))
GLOBAL_UNIT_ASSIGNED_CONTEXT((#1400,#1402,#1403))
REPRESENTATION_CONTEXT('','3D')
);
#1400=(
LENGTH_UNIT()
NAMED_UNIT(*)
SI_UNIT(.MILLI.,.METRE.)
);
#1401=(
LENGTH_UNIT()
NAMED_UNIT(*)
SI_UNIT($,.METRE.)
);
#1402=(
NAMED_UNIT(*)
PLANE_ANGLE_UNIT()
SI_UNIT($,.RADIAN.)
);
#1403=(
NAMED_UNIT(*)
SI_UNIT($,.STERADIAN.)
SOLID_ANGLE_UNIT()
);
#1404=SHAPE_DEFINITION_REPRESENTATION(#1406,#1409);
#1405=SHAPE_DEFINITION_REPRESENTATION(#1407,#1410);
#1406=PRODUCT_DEFINITION_SHAPE('',$,#1412);
#1407=PRODUCT_DEFINITION_SHAPE('',$,#1413);
#1408=PRODUCT_DEFINITION_SHAPE($,$,#14);
#1409=SHAPE_REPRESENTATION('',(#854,#924),#1397);
#1410=SHAPE_REPRESENTATION('',(#855),#1398);
#1411=PRODUCT_DEFINITION_CONTEXT('part definition',#1419,'design');
#1412=PRODUCT_DEFINITION('macropad down','macropad down v4',#1414,#1411);
#1413=PRODUCT_DEFINITION('macropad bottom','macropad bottom',#1415,#1411);
#1414=PRODUCT_DEFINITION_FORMATION('',$,#1421);
#1415=PRODUCT_DEFINITION_FORMATION('',$,#1422);
#1416=PRODUCT_RELATED_PRODUCT_CATEGORY('macropad down v4',
'macropad down v4',(#1421));
#1417=PRODUCT_RELATED_PRODUCT_CATEGORY('macropad bottom',
'macropad bottom',(#1422));
#1418=APPLICATION_PROTOCOL_DEFINITION('international standard',
'automotive_design',2009,#1419);
#1419=APPLICATION_CONTEXT(
'Core Data for Automotive Mechanical Design Process');
#1420=PRODUCT_CONTEXT('part definition',#1419,'mechanical');
#1421=PRODUCT('macropad down','macropad down v4',$,(#1420));
#1422=PRODUCT('macropad bottom','macropad bottom',$,(#1420));
#1423=PRESENTATION_STYLE_ASSIGNMENT((#1424));
#1424=SURFACE_STYLE_USAGE(.BOTH.,#1425);
#1425=SURFACE_SIDE_STYLE('',(#1426));
#1426=SURFACE_STYLE_FILL_AREA(#1427);
#1427=FILL_AREA_STYLE('Steel - Satin',(#1428));
#1428=FILL_AREA_STYLE_COLOUR('Steel - Satin',#1429);
#1429=COLOUR_RGB('Steel - Satin',0.627450980392157,0.627450980392157,0.627450980392157);
ENDSEC;
END-ISO-10303-21;
